<?xml version="1.0" encoding="utf-8"?>
<!-- Generator: Adobe Illustrator 19.2.1, SVG Export Plug-In . SVG Version: 6.00 Build 0)  -->
<svg xmlns="http://www.w3.org/2000/svg" xmlns:xlink="http://www.w3.org/1999/xlink" version="1.1" id="Layer_1" x="0px" y="0px" viewBox="0 0 200 53.7" style="enable-background:new 0 0 200 53.7;" xml:space="preserve">
<g>
	<path d="M45.7,39.2c2.7-3.2,5.3-6.3,7.9-9.5c-0.8-0.3-1.5-0.4-2.2-0.8c-2.7-1.3-4.3-3.4-4.6-6.4c-0.4-2.9,0.5-5.5,2.7-7.6   C51,13.6,52.9,13,55,13c3.9,0,7.9-0.1,11.8,0c3.4,0.1,6,1.7,7.5,4.8c0,0,0,0.1,0.1,0.1c0,0,0,0,0.1,0.1c1.3-1.3,2.6-2.6,3.9-3.9   c0,4.8,0,9.6,0,14.4c-1.3-1.3-2.6-2.6-3.9-3.9c-1.2,2.9-3.4,4.5-6.4,5.1c2.8,3.4,5.6,6.7,8.5,10.1c0.1-0.2,0.2-0.3,0.2-0.5   C80.2,30.6,83.6,22,87,13.3c0.3-0.6,0.3-0.6,1-0.6c0.6,0,1.2,0,1.8,0c0.2,0,0.4,0.1,0.5,0.3c3.5,8.8,7,17.7,10.5,26.5   c0,0.1,0.1,0.2,0.1,0.4c-0.6,0-1.1,0-1.7,0c-0.7,0-1.4,0-2.1,0c-0.3,0-0.4-0.1-0.5-0.3c-1-2.4-2-4.8-2.9-7.2   c-0.1-0.3-0.2-0.4-0.5-0.4c-3,0-6,0-8.9,0c-0.3,0-0.4,0.1-0.5,0.3c-1,2.4-2,4.8-2.9,7.2c-0.1,0.3-0.2,0.4-0.5,0.4   c-2.8,0-5.6,0-8.4,0c-0.2,0-0.4-0.1-0.6-0.3c-3.1-3.7-6.2-7.4-9.3-11.2c-0.2-0.2-0.2-0.5-0.3-0.8c0-0.4,0-0.9,0-1.4   c0.2,0,0.3,0,0.5,0c1.4,0,2.7,0,4.1,0c1.8,0,3.3-0.7,4.2-2.3c1.5-2.6,0.3-6.7-3.6-7c-1.7-0.1-3.4-0.1-5-0.1c-2.1,0-4.2,0-6.3,0   c-1.2,0-2.4,0.3-3.4,1.1c-1.5,1.3-1.9,3-1.5,4.8c0.5,1.8,1.7,3,3.6,3.3c0.5,0.1,1.1,0.1,1.6,0.1c1.3,0,2.7,0,4,0c0,0.6,0,1.2,0,1.7   c0,0.1-0.1,0.2-0.1,0.2c-2.5,3-5.1,6.1-7.6,9.1c-0.6,0.7-1.2,1.5-1.8,2.2c-0.1,0.1-0.4,0.3-0.6,0.3c-2.6,0-5.1,0-7.7,0   c-0.3,0-0.4-0.1-0.5-0.3c-1-2.4-2-4.8-2.9-7.2c-0.1-0.3-0.3-0.4-0.6-0.4c-3,0-5.9,0-8.9,0c-0.3,0-0.4,0.1-0.5,0.3   c-1,2.4-2,4.8-2.9,7.2c-0.1,0.2-0.1,0.4-0.4,0.4c-1.3,0-2.5,0-3.9,0c0-0.1,0.1-0.3,0.1-0.4c3.5-8.8,7-17.6,10.5-26.5   c0.1-0.3,0.2-0.4,0.5-0.4c0.7,0,1.4,0,2.1,0c0.3,0,0.4,0.1,0.5,0.3c2.4,6.2,4.9,12.4,7.3,18.5c1,2.4,1.9,4.9,2.9,7.3   C45.5,38.9,45.6,39.1,45.7,39.2z M88.8,18.9c0,0-0.1,0-0.1,0c-1.1,3.1-2.2,6.2-3.3,9.3c2.3,0,4.4,0,6.7,0   C91,25.1,89.9,22,88.8,18.9z M30.3,28.2c2.2,0,4.4,0,6.7,0c-1.1-3.2-2.2-6.3-3.3-9.5C32.6,22,31.5,25.1,30.3,28.2z"/>
	<path d="M3.4,13c0.2,0,0.3,0,0.5,0c3.5,0,7,0,10.5,0c4.3,0,7.5,3.4,7.2,7.7c-0.1,1.7-0.9,3-2.2,4.1c-0.1,0.1-0.2,0.1-0.3,0.2   c0.4,0.2,0.8,0.5,1.2,0.7c1.6,1.1,2.5,2.7,2.8,4.6c0.4,2.4-0.1,4.7-1.6,6.6c-1.4,1.8-3.3,2.8-5.6,2.8c-4.1,0.1-8.3,0-12.4,0   c0,0-0.1,0-0.1,0C3.4,30.9,3.4,22,3.4,13z M7.2,36c0.1,0,0.2,0,0.3,0c2.7,0,5.4,0,8.1,0c0.3,0,0.6,0,0.9-0.1   c1.8-0.5,2.6-1.7,2.9-3.4c0.4-2.2-0.8-5.2-4.2-5.1c-2.5,0.1-5,0-7.5,0c-0.1,0-0.3,0-0.4,0C7.2,30.4,7.2,33.2,7.2,36z M7.2,23.6   c0.1,0,0.1,0,0.2,0c2.3,0,4.7,0,7,0c0.7,0,1.4-0.2,2-0.6c1.2-0.9,1.6-2.7,1.1-4.3c-0.5-1.4-1.5-2.1-3.2-2.1c-2.2,0-4.4,0-6.5,0   c-0.1,0-0.3,0-0.5,0C7.2,19,7.2,21.3,7.2,23.6z"/>
	<path d="M149.6,39.8c0-9,0-17.8,0-26.8c0.1,0,0.2,0,0.3,0c3.3,0,6.6,0,9.8,0c3.1,0.1,5.9,1,8.2,3.1c2.2,1.9,3.5,4.4,4.1,7.2   c0.8,4.1,0.2,7.9-2.2,11.4c-2,2.9-4.9,4.5-8.3,5c-1,0.1-2,0.2-3,0.2c-2.8,0-5.7,0-8.5,0C149.9,39.8,149.8,39.8,149.6,39.8z    M153.5,35.9c0.1,0,0.1,0,0.2,0c2.2,0,4.5,0.1,6.7-0.1c2.6-0.2,4.8-1.3,6.3-3.4c1.6-2.2,2.2-4.7,1.8-7.3c-0.6-4.6-3.8-8-8.6-8.2   c-2-0.1-4.1,0-6.1,0c-0.1,0-0.2,0-0.3,0C153.5,23.2,153.5,29.6,153.5,35.9z"/>
	<path d="M124.8,22.7c-1.3,0-2.6,0-3.8,0c-0.5-1.2-1-2.3-1.9-3.3c-2-2.1-4.5-2.9-7.4-2.8c-4.9,0.3-8.5,4.6-8.8,9.1   c-0.2,4.5,2.6,8.8,6.8,10c4.5,1.3,9.4-0.7,11.3-5.6c0.1-0.3,0.3-0.5,0.7-0.5c1.1,0,2.1,0,3.3,0c-0.2,0.7-0.4,1.3-0.7,2   c-1.8,4.3-4.9,7.1-9.5,8c-5.4,1.1-11-1.5-13.7-6.3C99,29.8,98.6,26,99.9,22c1.5-4.5,4.6-7.5,9.2-8.7c6-1.6,12.9,1.2,15.3,8.2   C124.6,21.8,124.7,22.2,124.8,22.7z"/>
	<path d="M196.6,39.8c-1.3,0-2.6,0-3.9,0c-0.1,0-0.3-0.2-0.3-0.3c-1-2.3-1.9-4.7-2.9-7.1c-0.2-0.4-0.4-0.6-0.8-0.6   c-2.9,0-5.8,0-8.7,0c-0.3,0-0.4,0.1-0.5,0.3c-1,2.4-1.9,4.8-2.9,7.1c-0.1,0.3-0.3,0.5-0.7,0.4c-1.1,0-2.1,0-3.2,0   c-0.1,0-0.3,0-0.5,0c0.4-1.1,0.8-2.1,1.2-3.1c3.1-7.8,6.2-15.6,9.3-23.5c0.2-0.5,0.4-0.6,0.9-0.6c0.6,0,1.2,0,1.8,0   c0.3,0,0.4,0.1,0.5,0.3c1.5,3.7,2.9,7.4,4.4,11.1c2,5.1,4,10.2,6.1,15.3C196.5,39.4,196.6,39.6,196.6,39.8z M187.8,28.3   c-1.1-3.1-2.2-6.2-3.3-9.3c0,0-0.1,0-0.1,0c-1.1,3.1-2.2,6.2-3.3,9.3C183.4,28.3,185.6,28.3,187.8,28.3z"/>
	<path d="M142.9,13c0.1,0,0.2,0,0.3,0c1.2,0,2.4,0,3.6,0c0,0.2,0,0.4,0,0.6c0,5.9-0.1,11.7,0,17.6c0.1,4.3-2.3,6.8-5.4,8.1   c-3.5,1.4-7,1.2-10.4-0.7c-2.7-1.5-4.1-3.8-4.1-7c0-6,0-12,0-18.1c0-0.1,0-0.3,0-0.4c1.3,0,2.6,0,3.9,0c0,0.2,0,0.3,0,0.5   c0,5.9,0.1,11.7,0,17.6c0,2.5,1.2,3.9,3.3,4.6c2.5,0.9,5,0.7,7.2-0.9c1.1-0.8,1.6-1.9,1.6-3.2c0-6,0-12,0-18.1   C142.9,13.4,142.9,13.2,142.9,13z"/>
	<path d="M57.7,7.6c0-2.7,2.3-4.9,5-4.9c2.7,0,5,2.3,4.9,5.1c0,2.7-2.3,4.9-5.1,4.9C59.8,12.5,57.6,10.3,57.7,7.6z"/>
	<path d="M112.9,42.1c0.3,3.2,0.6,6.3,0.8,9.4c-0.4,0-0.8,0-1.2,0c-0.2-2.6-0.4-5.2-0.6-7.8c0,0-0.1,0-0.1,0   c-0.1,0.1-0.1,0.2-0.2,0.3c-1,2.4-1.9,4.8-2.8,7.2c-0.1,0.3-0.3,0.4-0.6,0.4c-0.9,0-0.9,0-1.3-0.9c-0.9-2.2-1.8-4.5-2.7-6.7   c0-0.1-0.1-0.2-0.3-0.3c-0.2,2.6-0.4,5.2-0.6,7.8c-0.4,0-0.8,0-1.2,0c0.1-0.9,0.2-1.8,0.2-2.7c0.2-2.1,0.4-4.2,0.5-6.2   c0-0.4,0.2-0.5,0.5-0.5c1.3,0,1.2,0,1.7,1.2c0.9,2.2,1.7,4.3,2.6,6.5c0,0.1,0.1,0.2,0.2,0.4c0.1-0.2,0.1-0.3,0.2-0.4   c1-2.4,1.9-4.8,2.8-7.2c0.1-0.3,0.3-0.5,0.7-0.5C112.1,42.1,112.5,42.1,112.9,42.1z"/>
	<path d="M50,9.3C50,7.5,51.5,6,53.3,6c1.8,0,3.3,1.5,3.3,3.3c0,1.8-1.5,3.2-3.3,3.2C51.5,12.6,50,11.1,50,9.3z"/>
	<path d="M130.7,50.3c0-0.8,0-1.5,0-2.3c-0.7,0-1.3,0-2,0c0-0.4,0-0.7,0-1c1,0,2,0,3.1,0c0,0.1,0,0.2,0,0.3c0,1.2,0,2.3,0,3.5   c0,0.1-0.1,0.4-0.2,0.4c-1.7,0.6-3.4,1-5.2,0.6c-1.8-0.4-2.9-1.6-3.3-3.4c-0.3-1.2-0.3-2.4,0.2-3.5c0.7-1.8,2.1-2.7,4-2.9   c1-0.1,2,0,2.9,0.5c0.8,0.4,1.3,1,1.6,1.9c-0.5,0-0.9,0-1.3,0c-0.1,0-0.2-0.1-0.2-0.2c-0.4-0.7-1-0.9-1.7-1.1   c-1.9-0.3-3.5,0.5-4.1,2.2c-0.4,1.1-0.3,2.2,0,3.3c0.4,1.1,1.1,1.8,2.2,2.1c0.4,0.1,0.9,0.2,1.4,0.2   C129,50.8,129.9,50.6,130.7,50.3z"/>
	<path d="M179.5,47.4c0,1.4,0,2.7,0,4c-0.4,0-0.8,0-1.2,0c0-0.1,0-0.3,0-0.4c0-2.9,0-5.7,0-8.6c0-0.4,0.1-0.5,0.5-0.4   c1.2,0.1,2.4,0,3.6,0.1c0.7,0.1,1.4,0.4,1.8,1c0.8,1.3,0.2,3-1.3,3.5c-0.1,0-0.2,0.1-0.3,0.1c0,0,0,0.1,0,0.1   c1,0.2,1.5,0.8,1.8,1.7c0.3,0.9,0.6,1.8,0.9,2.8c-0.4,0-0.8,0-1.1,0c-0.1,0-0.2-0.2-0.3-0.3c-0.2-0.6-0.4-1.2-0.5-1.8   c-0.4-1.5-1.1-2-2.6-2C180.3,47.4,179.9,47.4,179.5,47.4z M179.6,46.3c0.9,0,1.7,0.1,2.6-0.2c0.7-0.2,0.9-0.6,1-1.3   c0-0.7-0.3-1.1-0.9-1.3c-0.8-0.3-1.6-0.2-2.4-0.2c-0.1,0-0.2,0.1-0.2,0.2C179.6,44.4,179.6,45.3,179.6,46.3z"/>
	<path d="M136,51.5c0.3-0.8,0.6-1.6,0.9-2.4c0.9-2.3,1.7-4.5,2.6-6.8c0.1-0.3,0.2-0.4,0.5-0.4c1.2,0,1.2,0,1.6,1.1c1,2.7,2,5.4,3,8   c0,0.1,0.1,0.2,0.1,0.3c-0.4,0-0.8,0-1.1,0c-0.1,0-0.2-0.2-0.3-0.3c-0.2-0.6-0.5-1.3-0.7-1.9c-0.1-0.2-0.2-0.3-0.5-0.3   c-1.2,0-2.4,0-3.6,0c-0.3,0-0.4,0.1-0.5,0.3c-0.2,0.6-0.5,1.3-0.7,1.9c-0.1,0.2-0.2,0.3-0.4,0.3C136.7,51.5,136.4,51.5,136,51.5z    M140.4,43.3c0,0-0.1,0-0.1,0c-0.5,1.5-1,3-1.6,4.6c1.1,0,2.2,0,3.3,0C141.5,46.3,140.9,44.8,140.4,43.3z"/>
	<path d="M169.4,43.2c0,1,0,1.9,0,2.9c1.3,0,2.6,0,3.8,0c0,0.4,0,0.7,0,1.1c-1.3,0-2.5,0-3.8,0c0,1.1,0,2.1,0,3.1c1.3,0,2.7,0,4,0   c0,0.4,0,0.8,0,1.2c-1.7,0-3.5,0-5.3,0c0-0.1,0-0.3,0-0.4c0-2.9,0-5.7,0-8.6c0-0.3,0.1-0.5,0.4-0.5c1.4,0,2.9,0,4.3,0   c0.1,0,0.3,0,0.4,0c0,0.4,0,0.7,0,1.1C172,43.2,170.7,43.2,169.4,43.2z"/>
	<path d="M77.7,51.5c-0.4,0-0.8,0-1.2,0c0-3.1,0-6.3,0-9.4c0.3,0,0.6,0,0.8,0c1.3,0,2.6,0,3.9,0c0.4,0,0.5,0.1,0.5,0.5   c0,0.2,0,0.4,0,0.6c-1.3,0-2.6,0-4,0c0,1,0,1.9,0,2.9c1.3,0,2.5,0,3.8,0c0,0.4,0,0.7,0,1.1c-0.5,0-0.9,0-1.3,0c-0.7,0-1.4,0-2.1,0   c-0.3,0-0.4,0.1-0.4,0.4c0,1.2,0,2.3,0,3.5C77.7,51.2,77.7,51.4,77.7,51.5z"/>
	<path d="M192.7,46.8c0.7-1.3,1.4-2.5,2-3.8c0.3-0.7,0.7-1,1.5-0.9c0.1,0,0.2,0,0.4,0c-0.3,0.6-0.6,1.1-1,1.7   c-0.7,1.2-1.4,2.4-2.1,3.7c-0.2,0.3-0.3,0.7-0.3,1c0,1,0,2,0,3c-0.4,0-0.8,0-1.2,0c0-0.5,0-1,0-1.5c0.2-1.4-0.2-2.6-1-3.8   c-0.8-1.3-1.6-2.7-2.4-4.1c0.5,0,0.9,0,1.3,0c0.1,0,0.2,0.2,0.3,0.3c0.7,1.3,1.4,2.7,2.1,4C192.5,46.5,192.6,46.6,192.7,46.8z"/>
	<path d="M159.8,50.4c1.4,0,2.7,0,4,0c0,0.4,0,0.7,0,1.1c-1.7,0-3.4,0-5.2,0c0-3.1,0-6.3,0-9.4c0.4,0,0.8,0,1.2,0   C159.8,44.8,159.8,47.6,159.8,50.4z"/>
	<path d="M98.1,50.4c0,0.4,0,0.8,0,1.1c-1.7,0-3.4,0-5.1,0c0-3.1,0-6.2,0-9.4c0.4,0,0.7,0,1.2,0c0,2.7,0,5.5,0,8.3   C95.5,50.4,96.8,50.4,98.1,50.4z"/>
	<path d="M149.2,42.1c0.4,0,0.7,0,1.2,0c0,2.7,0,5.5,0,8.3c1.4,0,2.7,0,4,0c0,0.4,0,0.7,0,1.1c-1.7,0-3.4,0-5.2,0   C149.2,48.4,149.2,45.2,149.2,42.1z"/>
	<path d="M86.4,42.1c0.4,0,0.8,0,1.2,0c0,3.1,0,6.3,0,9.4c-0.4,0-0.8,0-1.2,0C86.4,48.4,86.4,45.2,86.4,42.1z"/>
</g>
</svg>
